# xmcd
#
# Track frame offsets:
#	150
#	13277
#	29109
#	44371
#	61573
#	82816
#	99354
#	115928
#	129670
#	145013
#	163747
#	177731
#	191166
#	206579
#	221728
#	238116
#	252155
#	266659
#	283834
#	297042
#
# Disc length: 4159 seconds
#
# Revision: 1
# Processed by: cddbd v1.5.2PL0 Copyright (c) Steve Scherf et al.
# Submitted via: audiograbber 1.83.01
#
DISCID=33103d14
DTITLE=Marisela - Exitos
DYEAR=1900
DGENRE=
TTITLE0=Mi problema
TTITLE1=Yo se que tu
TTITLE2=Enamorada y herida
TTITLE3=No puedo olvidarlo
TTITLE4=Si no te hubiera ido
TTITLE5=Sola con mi soledad
TTITLE6=Ya no te vas
TTITLE7=Tu dama de hierro
TTITLE8=Sin é
TTITLE9=Siénteme, ámame, quiéreme
TTITLE10=Ahora no
TTITLE11=Dios bendiga tu amor
TTITLE12=A cambio de que
TTITLE13=Porque tengo ganas
TTITLE14=Amigo mio, cariño mio
TTITLE15=La pareja ideal
TTITLE16=Mi amor por ti
TTITLE17=Vete con ella
TTITLE18=El fin de nuestro amor
TTITLE19=Vete mejor
EXTD=
EXTT0=
EXTT1=
EXTT2=
EXTT3=
EXTT4=
EXTT5=
EXTT6=
EXTT7=
EXTT8=
EXTT9=
EXTT10=
EXTT11=
EXTT12=
EXTT13=
EXTT14=
EXTT15=
EXTT16=
EXTT17=
EXTT18=
EXTT19=
PLAYORDER=
